<svg id="Layer_1" data-name="Layer 1" xmlns="http://www.w3.org/2000/svg" xmlns:xlink="http://www.w3.org/1999/xlink" viewBox="0 0 293.18 60.56"><defs><style>.cls-1{fill:#b52bfd;}.cls-2{fill:#9538fd;}.cls-3{fill:#843ffd;}.cls-4{fill:#226afd;}.cls-5{fill:#6d4afd;}.cls-6{fill:#7b43fd;}.cls-7{fill:#425cfd;}.cls-8{fill:#5454fd;}.cls-9{fill:#7048fd;}.cls-10{fill:#a730fd;}.cls-11{fill:#3263fd;}.cls-12{fill:#3064fd;}.cls-13{fill:#465afd;}.cls-14{fill:#634efd;}.cls-15{fill:#5155fd;}.cls-16{fill:#3b5ffd;}.cls-17{fill:#5d51fd;}.cls-18{fill:#aa2ffd;}.cls-19{fill:#c5b0fd;}.cls-20{fill:#d4adfd;}.cls-21{fill:#b5b4fd;}.cls-22{fill:#95bcfd;}.cls-23{fill:#a4b8fd;}.cls-24{fill:#9ebafd;}.cls-25{fill:#b8b4fd;}.cls-26{fill:#86c0fd;}.cls-27{fill:#79c2fd;}.cls-28{fill:url(#linear-gradient);}</style><linearGradient id="linear-gradient" x1="181.38" y1="9.18" x2="181.38" y2="50.35" gradientUnits="userSpaceOnUse"><stop offset="0" stop-color="#1d6bfe"/><stop offset="0.6" stop-color="#b32cfe" stop-opacity="0.8"/></linearGradient></defs><title>Artboard 1</title><path class="cls-1" d="M52.15,16.41l.24,1.05,1.26.33c.52.13,1,.25,1.54.4.2.06.42.09.62.16a1.3,1.3,0,0,1,.85,1.76,1.56,1.56,0,0,1-1.89.91,1.31,1.31,0,0,1-.88-1c0-.11-.07-.17-.17-.18-.54-.09-1.09-.14-1.61-.28s-.54,0-.73.32A23,23,0,0,1,49,22.57Q45.72,26,42.41,29.46l-9,9.44-9.57,10c-1.43,1.49-2.85,3-4.27,4.48a4.87,4.87,0,0,1-2.9,1.5A4.44,4.44,0,0,1,14,54.43c.05-.06.08-.13.13-.18l1.2-1.2.11-.16a3,3,0,0,0,.43.06A3,3,0,0,0,18.26,52c1.48-1.52,3-3,4.45-4.54l.14-.16-.92-.86a.25.25,0,0,0,.09,0l1.24-1.25.89.87,2.7-2.8L26,42.44l.13-.11,1-1c.13-.13.24-.27.36-.41l.95.81L31.1,39l-.84-.76,1.32-1.31.66.74L35,34.82l-.7-.64s.07,0,.09,0l1.24-1.26.57.55,2.64-2.73-.5-.53.08-.06L39.51,29a.39.39,0,0,0,.06-.11l.45.5.1-.09,3.7-3.89q2.53-2.65,5.06-5.33a6.17,6.17,0,0,0,1.49-1.91,1.67,1.67,0,0,0,.16-.12l1.3-1.29C51.94,16.65,52,16.53,52.15,16.41Z"/><path class="cls-2" d="M10.72,51.29a3.89,3.89,0,0,1-.55-1.35,4.8,4.8,0,0,1,1.47-4.73l4.47-4.3,8.14-7.81,5.18-5,9.73-9.35c.28-.27.53-.58.78-.86l-.77-.08-.51-.08c.05-.06.08-.13.13-.18l2.69-2.69c.05-.05.09-.13.14-.19L43,15a.26.26,0,0,0,.3-.08A10.88,10.88,0,0,1,45,13.43a4.76,4.76,0,0,1,1.83-.8,3.15,3.15,0,0,1,2.3.4l-.13.18L47.75,14.5a2.5,2.5,0,0,0-1.84.59,8.14,8.14,0,0,0-.63.54l-7.32,7-5.24,5-8,7.64-8.36,8L12.8,46.78a2.81,2.81,0,0,0-.86,2.07A3.77,3.77,0,0,0,12.16,50c-.08.06-.17.1-.24.16Z"/><path class="cls-3" d="M41.62,14.69c0,.06-.09.14-.14.19l-2.69,2.69c0,.05-.08.12-.13.18l-1.37-.14-.79-.08c-.57,0-1.14,0-1.7-.08a3.76,3.76,0,0,0-1.72.38,4.78,4.78,0,0,0-1.68,1.35,4.84,4.84,0,0,1-1.56,1.32l-.34.12a2.07,2.07,0,0,1,.17-.24l3.55-3.55.15-.14,1-1a.1.1,0,0,0,0-.07h.06l1.43.05,1.46.07c.22,0,.44.06.65.07l.9.05c-1.16-.34-2.32-.64-3.48-.95l-2-.54a1,1,0,0,1,.12-.2L34.65,13a1.67,1.67,0,0,0,.12-.16,3.54,3.54,0,0,1,.45.08l6.18,1.65Z"/><path class="cls-4" d="M4.29,13.82a2.86,2.86,0,0,1-.45-1.13A3.32,3.32,0,0,1,4,11.07C4.33,10,4.64,8.85,5,7.74a2.72,2.72,0,0,1,2.28-2A4.36,4.36,0,0,1,9.13,6c.68.2,1.36.37,2,.56.11,0,.21.06.32.09a1.67,1.67,0,0,1-.12.16L10.18,8a1.18,1.18,0,0,0-.13.18C9.35,8,8.65,7.8,8,7.64a.85.85,0,0,0-1.08.48c0,.11,0,.23-.07.34-.26.94-.53,1.88-.79,2.81-.1.4-.19.79-.28,1.19a.75.75,0,0,0-.18.13Z"/><path class="cls-5" d="M34.77,12.88a1.67,1.67,0,0,1-.12.16l-1.09,1.1a1,1,0,0,0-.12.2h-.07L28.5,13.05l-1.91-.52a1.13,1.13,0,0,1,.12-.18c.38-.36.76-.72,1.13-1.09a1,1,0,0,0,.11-.2c.3.07.6.12.9.2l5.73,1.54A1,1,0,0,1,34.77,12.88Z"/><path class="cls-6" d="M34.42,15.6a.1.1,0,0,1,0,.07l-1,1-.15.14-3.55,3.55a2.07,2.07,0,0,0-.17.24,3.47,3.47,0,0,1-1.6.13l-.78-.16a1.88,1.88,0,0,1,.12-.18c.43-.42.85-.84,1.27-1.27a1.13,1.13,0,0,0,.12-.18,1.35,1.35,0,0,0,.82-.39c.32-.33.62-.68.93-1l.11-.12h0l0,0h0l.11-.12h0l.08,0,0,0,0-.05h0l.08-.08h0l0,0,.3-.24.08-.07h0l.08,0h0l0,0h0c.29-.16.57-.33.87-.47A5.94,5.94,0,0,1,34.42,15.6Z"/><path class="cls-7" d="M16.11,7.87l1.8.47,3.54.95.07,0a1.18,1.18,0,0,1-.13.18l-1.14,1.15a.75.75,0,0,0-.13.18H20l-3.74-1-1.61-.44a1.13,1.13,0,0,1,.12-.18L16,8.05C16,8,16.06,7.93,16.11,7.87Z"/><path class="cls-8" d="M18.83,18.4,17,17.94l-3.13-.83a.32.32,0,0,1-.09,0l1.29-1.3a1.53,1.53,0,0,0,.16-.25l3.37.9.31.08,1.36.38c-.24.25-.47.5-.71.74S19.09,18.15,18.83,18.4Z"/><path class="cls-9" d="M28.63,19a1.13,1.13,0,0,1-.12.18c-.42.43-.84.85-1.27,1.27a1.88,1.88,0,0,0-.12.18l-1.48-.37-3.2-.85-.13,0a2.12,2.12,0,0,1,.12-.2L23.6,18a1.13,1.13,0,0,0,.12-.18l.16,0,3.23.86A5.66,5.66,0,0,0,28.63,19Z"/><path class="cls-10" d="M47.75,14.5,49,13.21l.13-.18a3.54,3.54,0,0,1,.51.35c.64.63,1.29,1.26,1.88,1.93a5.86,5.86,0,0,1,.61,1.1c-.11.12-.21.24-.32.35l-1.3,1.29a1.67,1.67,0,0,1-.16.12,1.67,1.67,0,0,0-.53-1.9c-.38-.36-.74-.73-1.1-1.11A2.28,2.28,0,0,0,47.75,14.5Z"/><path class="cls-11" d="M16.11,7.87c-.05.06-.08.13-.13.18L14.79,9.21a1.13,1.13,0,0,0-.12.18h-.1l-2.34-.62-2.18-.58A1.18,1.18,0,0,1,10.18,8l1.19-1.2a1.67,1.67,0,0,0,.12-.16l3.89,1Z"/><path class="cls-10" d="M10.72,51.29l1.2-1.17c.07-.06.16-.1.24-.16a3.29,3.29,0,0,0,.37.57c.39.44.82.85,1.22,1.28a3.38,3.38,0,0,0,1.71,1.08l-.11.16-1.2,1.2c-.05,0-.08.12-.13.18a8.45,8.45,0,0,1-1.06-.7c-.65-.6-1.25-1.24-1.86-1.88A4.58,4.58,0,0,1,10.72,51.29Z"/><path class="cls-12" d="M4.29,13.82l1.26-1.23a.75.75,0,0,1,.18-.13l.07.15a.91.91,0,0,0,.65.58l.38.1.23.07,1.79.49L7.53,15.18a1.37,1.37,0,0,0-.13.2c-.65-.18-1.32-.33-1.95-.55A2.2,2.2,0,0,1,4.29,13.82Z"/><path class="cls-13" d="M15.27,15.53a1.53,1.53,0,0,1-.16.25l-1.29,1.3-2-.52c-.48-.12-1-.26-1.43-.39l.17-.19,1.31-1.33.72.18,1.51.39Z"/><path class="cls-14" d="M23.72,17.78a1.13,1.13,0,0,1-.12.18l-1.17,1.17a2.12,2.12,0,0,0-.12.2l-3.48-.93c.26-.25.52-.51.77-.77s.47-.49.71-.74l.42.09,1.45.37a1.15,1.15,0,0,0,.17.06Z"/><path class="cls-15" d="M20.12,10.83a.75.75,0,0,1,.13-.18L21.39,9.5a1.18,1.18,0,0,0,.13-.18l1.34.36,1.6.43.5.12a1,1,0,0,1-.12.17l-1.15,1.16a1.09,1.09,0,0,0-.13.17h-.09l-2-.54Z"/><path class="cls-16" d="M11.87,14.65,10.56,16l-.17.19-2-.51-1-.28a1.37,1.37,0,0,1,.13-.2l1.32-1.33a.58.58,0,0,1,.14,0l1.36.35.17,0Z"/><path class="cls-17" d="M23.56,11.73a1.09,1.09,0,0,1,.13-.17l1.15-1.16a1,1,0,0,0,.12-.17l2.86.76a.33.33,0,0,1,.13.07,1,1,0,0,1-.11.2c-.37.37-.75.73-1.13,1.09a1.13,1.13,0,0,0-.12.18l-.91-.23C25,12.12,24.27,11.92,23.56,11.73Z"/><path class="cls-18" d="M26,42.44l-1.69-1.75,1.29-1.38L27.46,41c-.12.14-.23.28-.36.41l-1,1Z"/><path class="cls-18" d="M34.27,34.18l-1.65-1.69,1.27-1.26,1.71,1.66-1.24,1.26S34.3,34.17,34.27,34.18Z"/><path class="cls-18" d="M38.31,30.18l-1.7-1.74,1.3-1.29,1.66,1.74a.39.39,0,0,1-.06.11l-1.12,1.12Z"/><path class="cls-18" d="M30.26,38.22l-1.6-1.66,1.27-1.25,1.65,1.6Z"/><path class="cls-18" d="M21.93,46.45l-1.61-1.66,1.27-1.26,1.67,1.63L22,46.41A.25.25,0,0,1,21.93,46.45Z"/><path class="cls-19" d="M30.38,16.35l1,.23s0,.05.06.08h0l0,0h0l-.08,0h0l-.08.07-.3.24,0,0h0l-.08.08h0l0,.05,0,0-.08,0h0l-.11.08a2.07,2.07,0,0,0-.22,0H22.42a1,1,0,0,0-.24.05L20.73,17l-.42-.09L19,16.51l-.31-.08a1,1,0,0,1,.24,0H30.15A1.85,1.85,0,0,0,30.38,16.35Z"/><path class="cls-20" d="M22.18,17.35a1,1,0,0,1,.24-.05h7.89a2.07,2.07,0,0,1,.22,0v0h0l0,0h0l-.11.12c-.31.35-.61.7-.93,1a1.35,1.35,0,0,1-.82.39,5.66,5.66,0,0,1-1.52-.28l-3.23-.86-.16,0-1.37-.37A1.15,1.15,0,0,1,22.18,17.35Z"/><path class="cls-21" d="M30.38,16.35a1.85,1.85,0,0,1-.23,0H18.88a1,1,0,0,0-.24,0l-3.37-.9-1.17-.31a.68.68,0,0,1,.23-.07h11a.49.49,0,0,0,.19-.07l1.71.44,2.45.65Z"/><path class="cls-22" d="M6.83,13.29,7,12.87h9.82A.58.58,0,0,0,17,12.8l3.16.84,1.87.49a1,1,0,0,1-.23.06H10.59l-.24,0L9,13.88a.58.58,0,0,0-.14,0l-1.79-.49Z"/><path class="cls-23" d="M10.35,14.23l.24,0H21.78a1,1,0,0,0,.23-.06l3.22.84.34.1a.49.49,0,0,1-.19.07h-11a.68.68,0,0,0-.23.07l-1.51-.39-.72-.18-1.35-.37Z"/><path class="cls-24" d="M17.85,48.07A1.36,1.36,0,0,1,18,49H14.24a1.36,1.36,0,0,1,.12-.91,1.16,1.16,0,0,0,.18,0h3.13A1.16,1.16,0,0,0,17.85,48.07Z"/><path class="cls-25" d="M14.24,49H18a1.33,1.33,0,0,1-.35.87H14.77a1.16,1.16,0,0,0-.18,0A1.65,1.65,0,0,1,14.24,49Z"/><path class="cls-10" d="M48.16,17.65a.93.93,0,0,1-.93.94,1,1,0,1,1,0-1.9A.94.94,0,0,1,48.16,17.65Z"/><path class="cls-20" d="M14.59,49.89a1.16,1.16,0,0,1,.18,0h2.85a1.22,1.22,0,0,1-.71.63A1.87,1.87,0,0,1,14.59,49.89Z"/><path class="cls-26" d="M17.85,48.07a1.16,1.16,0,0,1-.18,0H14.54a1.16,1.16,0,0,1-.18,0l.3-.49h2.9Z"/><path class="cls-27" d="M17.56,47.58h-2.9a1.62,1.62,0,0,1,1.15-.67,1.86,1.86,0,0,1,1.7.59A.56.56,0,0,1,17.56,47.58Z"/><path class="cls-26" d="M17,12.8a.58.58,0,0,1-.21.07H7L7.17,12h6.44c.06,0,.12,0,.19-.07Z"/><path class="cls-27" d="M13.8,12c-.07,0-.13.07-.19.07H7.17a2,2,0,0,1,1.66-1.26,6.25,6.25,0,0,1,1.78.35c1,.26,2.05.55,3.07.83Z"/><path class="cls-28" d="M91.85,16.84l-4.43,2.62a7.71,7.71,0,0,0-2.37-2.81,5.52,5.52,0,0,0-3-.75,5.59,5.59,0,0,0-3.78,1.29,4,4,0,0,0-1.5,3.19c0,1.76,1.32,3.19,3.94,4.26l3.61,1.48a15.45,15.45,0,0,1,6.45,4.35,9.79,9.79,0,0,1,2,6.29A11,11,0,0,1,89.46,45a11.43,11.43,0,0,1-8.32,3.28,11.11,11.11,0,0,1-7.78-2.79,12.81,12.81,0,0,1-3.78-7.85l5.53-1.22a9.32,9.32,0,0,0,1.32,4.41,6.24,6.24,0,0,0,9.16.63,5.89,5.89,0,0,0,1.69-4.33A6.27,6.27,0,0,0,87,35.2a4.91,4.91,0,0,0-.92-1.61,7.15,7.15,0,0,0-1.6-1.39A15.47,15.47,0,0,0,82.12,31l-3.49-1.45q-7.42-3.14-7.43-9.19a8.71,8.71,0,0,1,3.12-6.82,11.27,11.27,0,0,1,7.76-2.76Q88.34,10.75,91.85,16.84Z"/><path class="cls-28" d="M104.83,25.6h15.61V11.45h5.46V47.64h-5.46V30.74H104.83v16.9H99.37V11.45h5.46Z"/><path class="cls-28" d="M155.83,38.85H140.34l-4,8.79h-5.88l17.9-38.46,17.28,38.46h-6Zm-2.22-5.14-5.37-12.3-5.62,12.3Z"/><path class="cls-28" d="M169.12,11.45l10,25.08,10.15-25.08h6L179,50.35l-15.86-38.9Z"/><path class="cls-28" d="M219.72,16.58h-14.5v8.7H219.3v5.13H205.22V42.5h14.5v5.14h-20V11.45h20Z"/><path class="cls-28" d="M236.88,16.58V47.64h-5.46V16.58H223.1V11.45h22.08v5.13Z"/><path class="cls-28" d="M260,16.58V47.64h-5.46V16.58h-8.32V11.45h22.07v5.13Z"/><path class="cls-28" d="M293.18,16.58H278.67v8.7h14.09v5.13H278.67V42.5h14.51v5.14h-20V11.45h20Z"/></svg>